<?xml version="1.0" encoding="UTF-8"?>
<svg xmlns="http://www.w3.org/2000/svg" version="1.1" viewBox="0 0 36 35">
  <defs>
    <style>
      .cls-1 {
        fill: #323232;
      }

      .cls-2 {
        fill: #8de2e0;
      }

      .cls-3 {
        fill: #df0000;
      }

      .cls-4 {
        fill: #fff;
      }
    </style>
  </defs>
  <!-- Generator: Adobe Illustrator 28.7.1, SVG Export Plug-In . SVG Version: 1.2.0 Build 142)  -->
  <g>
    <g id="Layer_1">
      <circle class="cls-4" cx="17.5" cy="17.5" r="17.5"/>
      <polygon class="cls-2" points="9.1 14.9 22.7 14.9 19.8 12.1 10.5 12.1 9.1 14.9"/>
      <path class="cls-1" d="M27.3,19.6h-.9v1h.9v-1ZM28,18.7c0,.2-.1.5-.3.7-.2.2-.3.2-.4.2v1c.5,0,.9-.3,1.2-.6.3-.3.5-.8.5-1.2h-1ZM28.8,16.7q-.5,0-.5,0s0,0,0,0c0,0,0,0,0,0,0,0,0,0,0,0,0,0,0,0,0,0,0,0,0,0,0,0,0,0,0,0,0,0,0,0,0,0,0,.2,0,.1,0,.3,0,.5,0,.4,0,.9-.1,1.3h1c0-.2.1-.7.1-1.2,0-.2,0-.4,0-.5,0,0,0-.1,0-.2,0,0,0,0,0,0,0,0,0,0,0,0,0,0,0,0,0,0,0,0,0,0,0,0,0,0,0,0,0,0,0,0,0,0,0,0t-.5,0ZM27.6,16.2c.5,0,.6.2.6.3,0,0,0,.1,0,.1,0,0,0,0,0,0,0,0,0,0,0,0,0,0,0,0,0,0,0,0,0,0,0,0,0,0,0,0,0,0,0,0,0,0,0,0,0,0,0,0,0,0t.5,0,.5,0s0,0,0,0c0,0,0,0,0,0,0,0,0,0,0,0,0,0,0,0,0,0,0,0,0,0,0,0,0,0,0,0,0,0,0,0,0-.1,0-.2,0-.1,0-.3-.2-.5-.2-.4-.7-.8-1.4-.8v1ZM22.7,14.9q0,.5,0,.5s0,0,0,0c0,0,0,0,0,0,0,0,0,0,0,0,0,0,0,0,0,0,0,0,0,0,0,0,0,0,0,0,.1,0,.1,0,.3,0,.5,0,.4,0,.9.1,1.5.2,1.1.2,2.4.4,2.9.4v-1c-.4,0-1.6-.2-2.8-.4-.6,0-1.1-.2-1.5-.2-.2,0-.4,0-.5,0,0,0,0,0-.1,0,0,0,0,0,0,0,0,0,0,0,0,0,0,0,0,0,0,0,0,0,0,0,0,0,0,0,0,0,0,0t0,.5ZM19.5,12.5l2.8,2.8.7-.7-2.8-2.8-.7.7ZM10.9,12.6h8.9v-1h-8.9v1ZM10.4,12.9c.1-.1.3-.2.6-.3v-1c-.6,0-1.1.2-1.4.7l.8.6ZM8.7,17.1c.2-1.4,1-3,1.7-4.3l-.9-.5c-.8,1.3-1.5,3-1.8,4.6l1,.2ZM8.1,20.1q.5,0,.5,0h0s0,0,0,0c0,0,0,0,0,0,0,0,0,0,0,0,0,0,0,0,0,0,0,0,0,0,0,0,0,0,0-.1,0-.2,0-.2,0-.5,0-.8,0-.6,0-1.4.1-1.9h-1c0,.5,0,1.3-.1,1.9,0,.3,0,.6,0,.8,0,0,0,.2,0,.2,0,0,0,0,0,0,0,0,0,0,0,0s0,0,0,0c0,0,0,0,0,0,0,0,0,0,0,0s0,0,0,0t.5,0ZM10,19.6h-1.9v1h1.9v-1ZM22.2,19.6h-8v1h8v-1ZM22.7,14.4h-13.6v1h13.6v-1ZM26.4,19.6c-.3,0-.5.2-.5.5s.2.5.5.5v-1ZM28.8,16.7h-.5c0,0,0,0,0,0h.5ZM27.6,15.7v-.5s0,0,0,0v.5ZM22.7,14.9l-.4.4c0,0,.2.1.3.1v-.5ZM19.8,12.1l.4-.4c0,0-.2-.1-.4-.1v.5ZM10.9,12.1v-.5s0,0,0,0v.5ZM10,12.6l-.4-.3s0,0,0,0l.4.3ZM8.3,17h-.5c0,0,0,0,0,0h.5ZM8.1,20.1h-.5c0,.1,0,.3.1.4,0,0,.2.1.4.1v-.5ZM10,20.6c.3,0,.5-.2.5-.5s-.2-.5-.5-.5v1ZM14.2,19.6c-.3,0-.5.2-.5.5s.2.5.5.5v-1ZM22.2,20.6c.3,0,.5-.2.5-.5s-.2-.5-.5-.5v1ZM9.1,14.4c-.3,0-.5.2-.5.5s.2.5.5.5v-1ZM22.7,15.4c.3,0,.5-.2.5-.5s-.2-.5-.5-.5v1Z"/>
      <path class="cls-3" d="M15.6,17.8h4.7v-1h-4.7v1ZM20.3,17.8c.3,0,.5-.2.5-.5s-.2-.5-.5-.5v1ZM15.6,16.8c-.3,0-.5.2-.5.5s.2.5.5.5v-1Z"/>
      <path class="cls-1" d="M12.2,18.7c.8,0,1.4.6,1.4,1.4h1c0-1.4-1.1-2.5-2.5-2.5v1ZM10.7,20.1c0-.8.6-1.4,1.4-1.4v-1c-1.4,0-2.5,1.1-2.5,2.5h1ZM12.2,21.5c-.8,0-1.4-.6-1.4-1.4h-1c0,1.4,1.1,2.5,2.5,2.5v-1ZM13.6,20.1c0,.8-.6,1.4-1.4,1.4v1c1.4,0,2.5-1.1,2.5-2.5h-1Z"/>
      <path class="cls-1" d="M24.2,18.7c.8,0,1.4.6,1.4,1.4h1c0-1.4-1.1-2.5-2.5-2.5v1ZM22.7,20.1c0-.8.6-1.4,1.4-1.4v-1c-1.4,0-2.5,1.1-2.5,2.5h1ZM24.2,21.5c-.8,0-1.4-.6-1.4-1.4h-1c0,1.4,1.1,2.5,2.5,2.5v-1ZM25.6,20.1c0,.8-.6,1.4-1.4,1.4v1c1.4,0,2.5-1.1,2.5-2.5h-1Z"/>
    </g>
  </g>
</svg>