<?xml version="1.0" encoding="UTF-8"?>
<svg viewBox="0 0 43 43" version="1.1" xmlns="http://www.w3.org/2000/svg" xmlns:xlink="http://www.w3.org/1999/xlink">
    <title>Group</title>
    <g id="BANNERS" stroke="none" stroke-width="1" fill="none" fill-rule="evenodd">
        <g id="Display/300x600/F3" transform="translate(-110.000000, -68.000000)">
            <g id="Group-40" transform="translate(110.000000, 68.000000)">
                <g id="Group" transform="translate(0.000000, 0.330221)">
                    <path d="M42.3640774,21.2535471 C42.3640774,9.51550587 32.8805868,0 21.1820387,0 C9.48349054,0 0,9.51550587 0,21.2535471 C0,32.9915884 9.48349054,42.5070943 21.1820387,42.5070943 C32.8805868,42.5070943 42.3640774,32.9915884 42.3640774,21.2535471" id="Fill-1" fill="#FFFFFF"></path>
                    <polygon id="Fill-3" fill="#FFFFFF" points="7.20595739 36.4453961 35.15812 36.4453961 35.15812 8.3988698 7.20595739 8.3988698"></polygon>
                    <path d="M32.0976318,21.359614 C32.5791589,20.0690396 32.8280642,18.7784653 32.8280642,17.4878909 C32.8784101,14.1341649 30.2717172,11.3732927 27.0050431,11.3204427 C24.4256001,11.3332801 22.1161646,12.9639619 21.1820221,15.4322416 C20.2478796,12.9639619 17.938444,11.3332801 15.359001,11.3204427 C12.0923269,11.3732927 9.48563399,14.1341649 9.53597998,17.4878909 C9.53597998,18.8014726 9.79385781,20.1150542 10.292333,21.4286358 M11.694876,24.1998445 C13.6547143,27.3078263 16.8933077,30.4159748 21.1820221,33.5237899 C25.4728965,30.4144743 28.712653,27.3046586 30.6721589,24.1950097" id="Stroke-5" stroke="#323232" stroke-width="1.1676994" stroke-linecap="round" stroke-linejoin="round"></path>
                    <polyline id="Stroke-7" stroke="#E40000" stroke-width="1.1676994" stroke-linecap="round" points="7.78832595 21.8378484 17.3161808 21.8378484 19.2559139 18.9162588 22.0262729 25.3436225 24.2454844 21.8378484 34.5757182 21.8378484"></polyline>
                </g>
            </g>
        </g>
    </g>
</svg>