<?xml version="1.0" encoding="UTF-8"?>
<svg viewBox="0 0 43 43" version="1.1" xmlns="http://www.w3.org/2000/svg" xmlns:xlink="http://www.w3.org/1999/xlink">
    <title>Group 2</title>
    <defs>
        <polygon id="path-1" points="0 0 42.8553081 0 42.8553081 43 0 43"></polygon>
    </defs>
    <g id="BANNERS" stroke="none" stroke-width="1" fill="none" fill-rule="evenodd">
        <g id="Display/300x600/F3" transform="translate(-149.000000, -68.000000)">
            <g id="Group-40" transform="translate(110.000000, 68.000000)">
                <g id="Group-2" transform="translate(39.144692, 0.000000)">
                    <path d="M42.5981281,21.5837681 C42.5981281,9.84572685 33.1146375,0.330220981 21.4160894,0.330220981 C9.71754126,0.330220981 0.234050719,9.84572685 0.234050719,21.5837681 C0.234050719,33.3218094 9.71754126,42.8373153 21.4160894,42.8373153 C33.1146375,42.8373153 42.5981281,33.3218094 42.5981281,21.5837681" id="Fill-9" fill="#E40000"></path>
                    <path d="M19.8316029,7.07673548 C19.856859,7.63924651 20.2169242,8.014365 20.8164237,7.98735647 C21.4159232,7.96018122 21.7410952,7.55405293 21.7158392,6.99170862 L21.6294368,5.06193235 C21.6041807,4.49925461 21.2441155,4.12413611 20.6444498,4.15114464 C20.0449503,4.17815318 19.7197783,4.58428147 19.7450344,5.14679249 L19.8316029,7.07673548 Z M22.5256952,6.95519709 C22.5556037,7.61924019 22.2749622,8.14857407 21.7965921,8.44416744 L22.6207378,9.5968649 L21.6786197,9.63937833 L21.011826,8.69091205 C20.9654678,8.70074849 20.9036569,8.71141853 20.8489908,8.71391932 C19.8134917,8.76076745 19.0757484,8.14423936 19.0295563,7.11291358 L18.9429878,5.18297059 C18.8967958,4.1516448 19.5140742,3.47409744 20.6118828,3.4245818 C21.6551913,3.37740023 22.3931008,3.99392831 22.4391267,5.0252541 L22.5256952,6.95519709 Z" id="Fill-11" fill="#FFFFFF"></path>
                    <path d="M25.1297462,7.34963835 L26.4611734,7.76877076 L26.5033777,5.28181848 L25.1297462,7.34963835 Z M23.3942217,8.6152048 L26.4296033,4.18463856 L27.2329792,4.43738507 L27.2098832,9.81608415 L26.4139845,9.56550499 L26.4319296,8.48916499 L24.7434279,7.95766376 L24.1454239,8.85161282 L23.3942217,8.6152048 Z" id="Fill-13" fill="#FFFFFF"></path>
                    <polygon id="Fill-15" fill="#FFFFFF" points="30.7324246 12.4498328 30.2130134 12.0370357 30.8548833 7.99742632 28.6482998 10.7939764 28.0735579 10.3374989 31.2529989 6.30822605 31.7970014 6.74036256 31.1680919 10.7006136 33.3311419 7.95924759 33.9118655 8.42039326"></polygon>
                    <polygon id="Fill-17" fill="#FFFFFF" points="35.5531782 10.22498 37.392884 13.0460378 36.7860735 13.4443303 36.0860482 12.3708245 32.4069689 14.7864209 31.9673138 14.1122079 35.646393 11.6966115 34.9463677 10.6232725"></polygon>
                    <path d="M35.2574661,16.834768 L35.6346456,18.1828605 L37.7338908,16.860276 L35.2574661,16.834768 Z M33.2534297,16.0668587 L38.6098779,16.199734 L38.8373488,17.0128242 L34.3339577,19.9300791 L34.1084808,19.1243245 L35.0170349,18.5516436 L34.5391633,16.8421036 L33.4661124,16.8274323 L33.2534297,16.0668587 Z" id="Fill-19" fill="#FFFFFF"></path>
                    <path d="M37.7828577,23.5189128 L37.9225969,23.5287492 C38.373717,23.5610927 38.7228158,23.2644991 38.7605337,22.7339981 C38.7982517,22.2034972 38.5476848,21.8797283 38.1588742,21.8522196 C37.8945162,21.8332136 37.6329828,21.9947646 37.4752985,22.3442083 L37.1250366,23.0956124 C36.8480506,23.6953018 36.4833329,24.3199991 35.5658062,24.2544784 C34.656089,24.1894579 34.0904858,23.4590605 34.163097,22.4372377 C34.2362067,21.4074124 34.8544821,20.7300318 35.7643655,20.7950523 L35.9120803,20.8055556 L35.8560849,21.5934712 L35.6772985,21.5806338 C35.2107257,21.5472899 34.8749196,21.8762272 34.83338,22.461412 C34.7901788,23.0699376 35.0930856,23.4287176 35.53623,23.4603943 C35.9559461,23.490237 36.1937188,23.2251533 36.3791516,22.814857 L36.7282504,22.0791246 C37.0230154,21.4494257 37.451704,21.0252917 38.1592065,21.0758077 C38.9368278,21.1313252 39.4989417,21.7987027 39.4291551,22.7816799 C39.3601994,23.756988 38.7449148,24.3873538 37.8350315,24.3223332 L37.7261977,24.3146641 L37.7828577,23.5189128 Z" id="Fill-21" fill="#FFFFFF"></path>
                    <path d="M7.88586093,20.7167442 L5.96041742,20.7104089 L5.9579174,21.5315016 C5.95593115,22.1416944 6.34424332,22.533985 6.92878856,22.5358253 C7.50569052,22.5376528 7.88104234,22.147863 7.88303624,21.537837 L7.88586093,20.7167442 Z M8.59768351,19.9134905 L8.59220028,21.6028575 C8.58904327,22.6196787 7.93172065,23.3604127 6.94174892,23.3570895 C5.91289612,23.3537439 5.25274881,22.6085085 5.25607197,21.591854 L5.25906283,20.7080748 L3.47402316,20.7022397 L3.4766817,19.8966518 L8.59768351,19.9134905 Z" id="Fill-23" fill="#FFFFFF"></path>
                    <path d="M5.75969808,26.3355859 C5.23347443,26.5309809 4.98672921,26.9892924 5.19492568,27.5543042 C5.402956,28.1191493 5.88730773,28.3062084 6.41386369,28.11098 L8.21983931,27.4412685 C8.74639527,27.2460401 8.99280818,26.787562 8.78494402,26.2227169 C8.57674755,25.6577051 8.0920635,25.4704792 7.5656737,25.6657076 L5.75969808,26.3355859 Z M6.69483754,28.8740544 C5.72978957,29.2320008 4.87689851,28.7895277 4.5146732,27.8063838 C4.15527259,26.8307423 4.51616863,25.9379602 5.48138276,25.5800138 L7.28735839,24.9101356 C8.25257252,24.5521892 9.08386298,24.9361438 9.46469803,25.9704705 C9.82692333,26.9534477 9.46602729,27.8462297 8.50081316,28.2041761 L6.69483754,28.8740544 Z" id="Fill-25" fill="#FFFFFF"></path>
                    <polygon id="Fill-27" fill="#FFFFFF" points="7.16112785 32.4698736 6.6872441 31.8195015 10.8217635 28.7863767 11.2956473 29.4367488"></polygon>
                    <polygon id="Fill-29" fill="#FFFFFF" points="11.7164268 36.7698319 11.1945233 36.360536 11.8101401 32.3172587 9.62183402 35.1276465 9.04426743 34.6750035 12.1976215 30.6258911 12.7442826 31.0543598 12.1407953 35.0179452 14.2860664 32.263075 14.8697809 32.7205528"></polygon>
                    <polygon id="Fill-31" fill="#FFFFFF" points="15.7947847 33.2124582 18.9860228 34.2679583 18.7588843 34.9586765 17.5445987 34.5572163 16.1683087 38.7473733 15.4056417 38.4951269 16.7819317 34.30497 15.5676461 33.9033431"></polygon>
                    <path d="M22.4206665,35.8981399 L22.4190049,35.7574288 C22.4143524,35.3037855 22.0911744,34.9788495 21.5612952,34.984518 C21.0310838,34.9900197 20.7301709,35.2671072 20.7341587,35.6580641 C20.7369834,35.9239814 20.919093,36.1723932 21.2789921,36.301434 L22.0537887,36.5903586 C22.6720641,36.8184306 23.3224081,37.1321964 23.3322114,38.0551546 C23.3420148,38.9699436 22.6627592,39.5953078 21.6417159,39.6063113 C20.6126969,39.6173148 19.8895756,39.0541369 19.8796061,38.1390145 L19.8782768,37.9904675 L20.6655353,37.9819648 L20.667363,38.161855 C20.6723478,38.6311699 21.0262652,38.9401008 21.6111427,38.9339322 C22.2189502,38.9272635 22.5506023,38.5953253 22.5459499,38.1495178 C22.5414636,37.7272177 22.2583297,37.5111495 21.8359551,37.3592681 L21.0767773,37.0701768 C20.427098,36.8269333 19.9706609,36.4329755 19.9631838,35.721084 C19.9547097,34.9390036 20.5719881,34.3223088 21.5541504,34.3118055 C22.5283371,34.3014689 23.2047679,34.8651469 23.2144051,35.7801026 L23.2157344,35.8896372 L22.4206665,35.8981399 Z" id="Fill-33" fill="#FFFFFF"></path>
                    <path d="M34.5852889,33.0493067 C34.6075541,33.0716471 34.6298194,33.0716471 34.6520846,33.0716471 C34.6967812,33.0716471 34.7190464,33.0716471 34.7635769,33.0269663 C34.8081073,32.9822855 34.8081073,32.8927572 34.7635769,32.8480764 C32.1116888,30.0530268 28.8581413,27.7948135 25.2257525,26.3413543 L24.1114943,25.8942131 C23.5321,25.6481354 23.1532588,25.0892922 23.1532588,24.440754 C23.2202207,22.0483315 28.835876,22.5401536 29.4152704,21.3997933 L29.5043313,21.1985631 C28.3455426,20.1924119 26.9862007,19.4545122 25.4708362,19.0297113 C25.4485709,19.0967325 25.4040405,19.3651506 25.716086,19.879313 C26.0502305,20.4159826 25.35951,21.2880914 24.3343127,20.3489614 L24.2452518,20.2817735 C16.8021864,13.4397788 13.3703509,17.9563723 8.3118246,9.99635776 C8.26729415,9.92916987 8.20033232,9.90682948 8.13353664,9.95167698 C8.06657481,9.99635776 8.04430958,10.0633789 8.06657481,10.1305668 C12.0555395,19.7676111 20.2117567,17.7328016 21.1699922,26.7214744 C21.2145226,27.0569137 21.4596063,27.3251651 21.793917,27.3698459 C26.3177455,28.0854053 30.7300818,29.9636653 34.5630237,33.0493067 L34.5852889,33.0493067 Z" id="Fill-35" fill="#FFFFFF"></path>
                    <g id="Group-39">
                        <mask id="mask-2" fill="white">
                            <use xlink:href="#path-1"></use>
                        </mask>
                        <g id="Clip-38"></g>
                        <path d="M21.4276208,1.33617209 C10.3466834,1.33617209 1.3315934,10.3816962 1.3315934,21.5000417 C1.3315934,32.6183872 10.3466834,41.6639113 21.4276208,41.6639113 C32.5085582,41.6639113 41.5236482,32.6183872 41.5236482,21.5000417 C41.5236482,10.3816962 32.5085582,1.33617209 21.4276208,1.33617209 M21.4276208,43 C9.61242946,43 0,33.3551199 0,21.5000417 C0,9.64479671 9.61242946,-8.33596682e-05 21.4276208,-8.33596682e-05 C33.2429783,-8.33596682e-05 42.8554077,9.64479671 42.8554077,21.5000417 C42.8554077,33.3551199 33.2429783,43 21.4276208,43" id="Fill-37" fill="#FFFFFF" mask="url(#mask-2)"></path>
                    </g>
                </g>
            </g>
        </g>
    </g>
</svg>