<svg width="43" height="43" viewBox="0 0 43 43" fill="none" xmlns="http://www.w3.org/2000/svg">
<path d="M21.332 42.6639C33.1133 42.6639 42.6639 33.1133 42.6639 21.332C42.6639 9.55065 33.1133 0 21.332 0C9.55065 0 0 9.55065 0 21.332C0 33.1133 9.55065 42.6639 21.332 42.6639Z" fill="white"/>
<path d="M11.0425 18.2077H27.6205L24.1901 14.7773H12.7577L11.0425 18.2077Z" fill="#8DE2E0"/>
<path d="M27.6204 18.2078H11.0425M27.0482 24.4947H17.331M12.1854 24.4947H9.89959C9.89959 24.4947 9.90963 22.2708 10.0569 20.7765C10.3748 18.9592 11.2717 16.9512 12.1871 15.3498C12.4632 14.9766 12.8698 14.8293 13.33 14.7775H24.1917L27.6221 18.2078C27.6221 18.2078 32.433 18.9943 33.6964 19.0931C35.169 19.2085 35.0502 20.3263 35.0502 20.3263C35.0502 20.3263 34.8945 21.9963 34.7841 22.8163C34.6736 23.6362 34.0578 24.4963 33.3383 24.4963H32.1954" stroke="#323232" stroke-width="1.00401" stroke-linecap="round" stroke-linejoin="round"/>
<path d="M19.0461 21.0659H24.7623" stroke="#E40000" stroke-width="1.00401" stroke-miterlimit="10" stroke-linecap="round"/>
<path d="M14.8394 26.8806C16.1526 26.8806 17.2172 25.816 17.2172 24.5027C17.2172 23.1895 16.1526 22.1249 14.8394 22.1249C13.5261 22.1249 12.4615 23.1895 12.4615 24.5027C12.4615 25.816 13.5261 26.8806 14.8394 26.8806Z" stroke="#323232" stroke-width="1.00401" stroke-linecap="round" stroke-linejoin="round"/>
<path d="M29.4813 26.8806C30.7945 26.8806 31.8591 25.816 31.8591 24.5027C31.8591 23.1895 30.7945 22.1249 29.4813 22.1249C28.168 22.1249 27.1034 23.1895 27.1034 24.5027C27.1034 25.816 28.168 26.8806 29.4813 26.8806Z" stroke="#323232" stroke-width="1.00401" stroke-linecap="round" stroke-linejoin="round"/>
</svg>
